<?xml version="1.0" standalone="no"?>
<!DOCTYPE svg PUBLIC "-//W3C//DTD SVG 20010904//EN"
 "http://www.w3.org/TR/2001/REC-SVG-20010904/DTD/svg10.dtd">
<svg version="1.0" xmlns="http://www.w3.org/2000/svg"
 width="788.000000pt" height="1050.000000pt" viewBox="0 0 788.000000 1050.000000"
 preserveAspectRatio="xMidYMid meet">

<g transform="translate(0.000000,1050.000000) scale(0.100000,-0.100000)"
fill="#000000" stroke="none">
<path d="M640 7996 c0 -8 -6 -17 -12 -19 -10 -4 -9 -8 2 -16 12 -9 13 -13 2
-20 -20 -12 9 -21 69 -21 49 0 81 11 106 35 9 10 6 15 -13 24 -14 6 -31 11
-39 11 -8 0 -15 5 -15 10 0 6 -22 10 -50 10 -36 0 -50 -4 -50 -14z"/>
<path d="M2490 7970 c0 -5 7 -10 15 -10 8 0 15 5 15 10 0 6 -7 10 -15 10 -8 0
-15 -4 -15 -10z"/>
<path d="M980 7751 c1 -27 55 -38 64 -14 6 14 4 15 -36 18 -16 1 -28 -1 -28
-4z"/>
<path d="M600 7720 c0 -15 -7 -20 -25 -20 -15 0 -25 -6 -25 -15 0 -8 -9 -19
-20 -25 -26 -14 -90 -2 -90 16 0 8 5 14 10 14 6 0 10 5 10 11 0 8 -23 10 -74
7 -68 -4 -77 -8 -112 -41 -79 -73 -97 -87 -115 -87 -11 0 -19 -7 -19 -16 0 -9
-13 -21 -30 -27 -16 -6 -30 -17 -30 -23 0 -8 -13 -10 -40 -7 l-40 6 0 -67 c0
-59 2 -66 20 -66 11 0 20 5 20 10 0 6 9 10 20 10 11 0 20 -4 20 -10 0 -5 -9
-10 -20 -10 -13 0 -20 -7 -20 -20 0 -13 -7 -20 -20 -20 -20 0 -20 -7 -20 -320
0 -176 4 -320 8 -320 15 0 47 28 40 35 -4 4 0 14 8 22 13 14 17 13 35 -3 13
-12 23 -14 27 -8 4 6 15 13 24 17 13 4 15 12 9 34 -6 22 -16 30 -52 40 -42 12
-40 12 31 6 83 -8 94 -8 195 4 62 7 70 11 73 31 3 20 -1 22 -40 22 l-43 1 24
19 c24 21 57 28 46 10 -7 -11 35 -11 80 0 28 7 28 8 5 9 -14 1 -36 8 -50 16
l-25 14 28 1 c15 0 27 6 27 13 0 15 105 13 125 -3 8 -7 15 -7 19 -1 7 10 44 4
64 -12 8 -6 12 -6 12 2 0 7 10 9 28 6 19 -5 23 -4 12 3 -8 5 -37 13 -64 17
-52 7 -48 25 7 25 15 0 27 5 27 11 0 11 15 10 95 -9 93 -23 156 -32 250 -36
55 -3 107 -6 115 -7 37 -5 101 2 95 10 -9 16 9 21 84 23 39 1 71 5 71 10 0 16
34 7 85 -22 29 -17 58 -37 65 -45 9 -11 26 -13 75 -8 54 5 67 3 93 -16 17 -11
33 -21 37 -21 3 0 25 -13 48 -29 66 -45 100 -59 175 -75 38 -8 88 -23 111 -35
27 -12 54 -18 74 -15 31 5 68 -9 128 -49 15 -10 51 -20 80 -24 35 -4 64 -14
83 -30 15 -13 41 -30 57 -38 15 -8 35 -28 45 -43 17 -29 94 -82 119 -82 7 0
27 -11 43 -25 17 -14 44 -28 61 -31 17 -4 31 -11 31 -16 0 -5 5 -6 10 -3 16
10 135 -65 157 -97 10 -16 23 -28 30 -28 7 0 20 -8 30 -18 26 -27 53 -34 59
-17 9 22 19 18 35 -12 8 -16 44 -57 80 -93 37 -36 70 -75 73 -87 8 -27 19 -29
36 -9 10 13 16 12 46 -5 19 -10 43 -19 53 -19 12 0 33 -21 56 -57 45 -69 114
-143 133 -143 7 0 12 6 9 13 -6 16 11 47 26 47 7 0 39 -28 73 -63 60 -62 61
-65 73 -141 6 -42 11 -102 11 -133 0 -48 4 -61 26 -84 20 -21 24 -33 19 -51
-5 -12 -6 -23 -4 -23 2 0 -4 -11 -14 -25 -9 -13 -17 -31 -17 -38 0 -19 41 -5
59 19 30 42 61 6 61 -72 0 -49 -18 -93 -55 -138 l-29 -33 35 -67 c23 -44 39
-65 49 -62 13 3 123 19 355 50 44 6 123 18 175 26 52 9 160 20 240 26 80 5
181 14 225 20 76 9 150 16 380 38 156 14 292 31 390 46 50 8 153 19 230 24 77
6 166 17 198 26 32 8 88 15 125 15 37 0 85 5 107 11 22 6 92 15 155 20 63 5
176 16 250 24 74 8 185 19 245 25 61 6 130 15 155 20 25 6 83 14 130 20 432
50 459 53 558 66 l42 6 0 113 c0 81 -4 115 -13 119 -9 5 -9 7 0 12 8 3 13 24
13 47 0 40 -2 43 -38 55 -20 8 -59 17 -86 21 -28 4 -52 13 -54 19 -2 7 -15 9
-33 5 -18 -3 -29 -1 -29 6 0 6 -8 11 -18 11 -11 0 -30 9 -43 21 -16 14 -31 19
-49 14 -14 -3 -42 -8 -63 -10 -21 -3 -42 -7 -48 -10 -14 -9 -11 -25 6 -25 8 0
15 -9 15 -20 0 -15 7 -20 29 -20 16 0 31 -6 33 -12 3 -8 27 -13 68 -13 41 0
65 5 68 13 4 14 82 17 82 2 0 -5 15 -10 34 -10 28 0 36 -5 46 -30 7 -16 19
-30 26 -30 8 0 14 -4 14 -10 0 -5 -15 -10 -33 -10 -21 0 -38 -7 -47 -20 -8
-11 -29 -23 -47 -26 -18 -3 -33 -10 -33 -15 0 -5 -9 -9 -20 -9 -13 0 -20 -7
-20 -18 0 -10 -12 -22 -30 -29 -16 -6 -30 -8 -30 -4 0 3 -12 12 -27 18 -16 7
-50 25 -78 42 -27 17 -75 42 -105 56 -30 14 -65 35 -77 47 -18 17 -31 20 -67
16 -25 -3 -55 0 -68 6 -13 6 -43 18 -68 26 -25 7 -65 23 -90 36 -29 14 -56 20
-77 17 -42 -7 -63 14 -63 61 l0 36 50 0 c28 0 50 5 50 10 0 15 27 12 33 -3 7
-17 99 -38 137 -31 24 5 30 12 30 32 0 13 8 31 18 39 9 8 11 12 4 8 -6 -3 -15
1 -18 9 -7 17 -44 22 -44 6 0 -5 -7 -10 -16 -10 -8 0 -22 -6 -29 -12 -35 -32
-45 -38 -60 -38 -8 0 -15 5 -15 10 0 6 -7 10 -16 10 -17 0 -44 23 -44 38 0 12
-39 29 -84 37 -20 4 -36 13 -36 20 0 16 -45 25 -134 25 -82 1 -130 10 -206 39
-30 12 -65 19 -77 16 -18 -4 -23 -1 -23 15 0 13 -7 20 -20 20 -14 0 -20 7 -20
24 0 17 -9 27 -30 36 -16 7 -27 16 -25 21 7 11 -52 21 -96 17 -23 -2 -35 -9
-37 -21 -5 -26 18 -77 34 -77 8 0 14 -9 14 -20 0 -13 7 -20 20 -20 13 0 20 -7
20 -20 0 -15 -7 -20 -27 -20 -52 0 -73 11 -73 36 0 17 -6 24 -20 24 -28 0
-100 23 -100 32 0 5 -8 8 -18 8 -11 0 -30 9 -43 21 -16 14 -35 19 -59 18 -19
-2 -55 3 -79 10 -31 9 -72 11 -132 6 -85 -7 -87 -7 -94 17 -11 38 -28 68 -39
68 -6 0 -22 9 -36 20 -14 11 -33 20 -42 20 -9 0 -29 7 -45 15 -15 8 -52 24
-80 36 -29 13 -53 28 -53 35 0 7 -4 14 -9 16 -17 6 12 78 31 78 10 0 18 4 18
10 0 5 16 0 36 -11 33 -18 42 -19 85 -9 51 12 69 8 69 -16 0 -18 17 -18 36 0
16 16 19 76 4 76 -5 0 -10 7 -10 15 0 9 10 15 26 15 42 0 62 16 57 45 -4 18
-12 25 -27 25 -27 0 -46 18 -46 43 0 29 -137 77 -219 77 -36 0 -39 -2 -44 -35
-3 -19 -4 -51 -1 -70 15 -121 18 -113 -47 -95 -21 6 -41 20 -49 35 -7 13 -21
27 -32 31 -11 3 -18 15 -18 29 0 31 -18 36 -155 46 -60 4 -130 12 -155 17 -25
6 -47 7 -50 3 -3 -4 -59 -8 -125 -9 -144 -2 -275 -12 -275 -21 0 -3 -18 -6
-40 -6 -37 0 -40 1 -40 28 0 34 20 57 50 57 12 0 28 7 36 15 9 8 27 15 42 15
35 0 50 10 68 45 36 70 -6 113 -100 101 -28 -3 -81 -9 -118 -12 -63 -6 -68 -8
-68 -30 0 -21 -5 -24 -35 -24 -24 0 -35 5 -35 15 0 8 9 15 20 15 13 0 20 7 20
20 0 11 -4 20 -10 20 -5 0 -10 21 -10 48 -1 27 -10 65 -23 92 -18 37 -29 47
-59 54 -27 7 -38 15 -38 28 0 10 -4 18 -10 18 -5 0 -10 -7 -10 -15 0 -8 -6
-15 -12 -15 -35 0 -92 -24 -134 -57 -44 -33 -51 -35 -103 -31 -31 3 -66 0 -79
-5 -18 -8 -25 -8 -32 4 -8 11 -13 12 -27 1 -31 -21 -45 -25 -52 -15 -3 5 -30
9 -60 9 -34 0 -56 5 -59 12 -2 7 -10 12 -19 12 -17 0 -43 24 -43 39 0 16 -71
13 -104 -4 -15 -8 -47 -15 -70 -15 -41 0 -43 2 -52 38 l-9 37 -70 -4 c-38 -1
-72 -7 -75 -11 -3 -4 -42 -11 -87 -14 -88 -7 -113 -13 -113 -27 0 -5 -17 -9
-39 -9 -27 0 -46 -7 -65 -25 -15 -14 -34 -25 -42 -25 -7 0 -14 -8 -14 -19 0
-22 -35 -31 -121 -31 -62 0 -63 1 -73 42 -6 25 -4 26 44 33 28 4 50 10 50 14
0 3 17 15 38 26 20 11 43 26 51 33 9 9 26 11 52 7 26 -4 39 -3 39 4 0 6 9 11
20 11 16 0 20 7 20 30 0 23 4 30 20 30 11 0 20 5 20 10 0 6 9 10 20 10 11 0
20 5 20 10 0 6 32 10 76 10 71 0 104 11 104 36 0 14 -64 64 -82 64 -10 0 -18
3 -18 8 0 4 -16 18 -35 31 -34 23 -41 24 -135 17 -85 -5 -100 -4 -100 9 0 8
-7 15 -15 15 -8 0 -15 7 -15 16 0 11 -5 14 -16 10 -9 -3 -49 -6 -90 -6 -43 0
-74 -4 -74 -10 0 -5 7 -10 15 -10 8 0 15 -6 15 -14 0 -8 3 -21 6 -30 8 -20
-32 -22 -71 -4 -30 14 -34 48 -5 48 11 0 20 5 20 10 0 6 -15 10 -32 10 -18 0
-57 3 -85 6 -45 6 -53 4 -53 -10 0 -11 9 -16 30 -16 19 0 30 -5 30 -14 0 -8 3
-21 6 -30 4 -12 0 -16 -15 -16 -12 0 -21 4 -21 9 0 5 -18 12 -40 16 -22 4 -40
11 -40 16 0 5 -9 9 -20 9 -11 0 -20 -4 -20 -9 0 -5 -9 -11 -20 -14 -17 -4 -20
0 -20 29 l0 34 -55 0 c-30 0 -55 -4 -55 -9 0 -5 -3 -16 -6 -25 -4 -12 0 -16
15 -16 12 0 21 -4 21 -10 0 -5 16 -10 35 -10 40 0 43 -6 17 -29 -10 -9 -21
-24 -25 -33 -3 -10 -16 -18 -27 -18 -11 0 -20 -4 -20 -10 0 -5 5 -10 11 -10 6
0 9 -6 6 -14 -6 -15 20 -26 61 -26 12 0 22 -4 22 -10 0 -5 18 -10 40 -10 33 0
40 -3 40 -20 0 -11 -7 -20 -15 -20 -8 0 -15 -7 -15 -15 0 -8 -12 -29 -27 -45
-35 -40 -92 -41 -166 -3 -29 15 -58 26 -64 25 -7 -2 -13 6 -13 16 0 11 -7 25
-15 32 -18 15 -137 26 -162 15 -10 -5 -21 -7 -25 -7 -5 1 -8 -3 -8 -8 0 -7
-49 -10 -145 -9 -80 2 -145 6 -145 10 0 4 -10 9 -22 12 -13 2 -31 8 -40 12
-14 5 -18 2 -18 -14 0 -14 -6 -21 -20 -21 -11 0 -20 4 -20 8 0 4 9 14 20 22
16 12 20 26 20 72 0 51 2 58 20 58 13 0 20 7 20 20 0 11 5 20 10 20 6 0 10 13
10 29 0 16 5 31 12 33 7 3 5 11 -7 25 -17 20 -21 20 -62 8 -43 -13 -79 -44
-64 -55 5 -3 13 -15 20 -27 l11 -22 -127 -3 c-120 -3 -128 -4 -131 -23 -2 -13
-15 -25 -35 -31 -18 -7 -57 -21 -87 -33 l-55 -21 -55 27 c-54 26 -121 33 -128
13 -2 -6 -15 -10 -28 -10 -20 0 -24 -5 -24 -28 0 -20 -7 -33 -25 -42 -16 -8
-25 -22 -25 -37 0 -18 -5 -23 -25 -23 -20 0 -25 -5 -25 -24 0 -14 -4 -28 -10
-31 -5 -3 -10 3 -10 14 0 12 -4 21 -10 21 -5 0 -10 -7 -10 -15 0 -8 -4 -15
-10 -15 -5 0 -10 24 -10 54 l0 55 -47 7 c-32 5 -48 3 -51 -5 -2 -6 -21 -11
-43 -11 -35 0 -39 3 -39 24 0 16 -7 27 -20 31 -15 5 -20 15 -20 41 0 19 -4 34
-10 34 -16 0 -12 18 10 40 19 19 90 29 90 13 0 -8 47 -33 62 -33 4 0 26 -18
48 -40 44 -44 69 -50 90 -20 8 11 20 20 28 20 40 0 60 89 25 109 -15 8 -16 12
-4 35 8 15 26 28 44 32 17 3 37 13 46 21 12 13 12 16 0 24 -8 5 -17 9 -21 9
-5 0 -8 7 -8 15 0 8 -9 15 -20 15 -13 0 -20 7 -20 20 0 13 -7 20 -20 20 -13 0
-20 -7 -20 -20z m2005 -342 c4 -14 8 -18 12 -10 2 6 16 12 29 12 17 0 24 -6
24 -20 0 -14 -7 -20 -21 -20 -12 0 -39 -5 -59 -11 -21 -7 -50 -9 -64 -5 -22 5
-26 12 -26 41 l0 35 49 0 c42 0 50 -3 56 -22z m-283 -18 c15 0 38 -27 38 -44
0 -9 -7 -16 -16 -16 -24 0 -44 26 -43 57 0 15 3 22 6 16 2 -7 9 -13 15 -13z
m-1418 -89 c-3 -21 -2 -41 3 -44 15 -9 146 14 164 29 8 8 23 14 33 14 9 0 26
5 36 10 11 6 21 6 25 1 3 -5 30 -7 60 -4 47 5 55 3 55 -11 0 -9 -4 -16 -9 -16
-4 0 -23 -14 -40 -31 -55 -52 -121 -75 -291 -100 -75 -12 -78 -12 -105 -5 -11
2 -23 5 -27 5 -5 1 -8 15 -8 31 0 21 -5 30 -17 30 -23 0 -53 29 -46 46 3 8 11
14 17 14 7 0 18 11 24 25 14 30 43 43 95 44 l37 1 -6 -39z m413 -17 c-3 -3
-12 -4 -19 -1 -8 3 -5 6 6 6 11 1 17 -2 13 -5z m313 -126 c0 -13 -28 -9 -34 5
-5 10 -7 10 -12 0 -8 -18 -24 -16 -24 3 0 12 7 15 25 12 14 -3 25 -1 25 6 0
12 20 -14 20 -26z m1650 24 c0 -5 9 -19 20 -32 11 -13 20 -29 20 -36 0 -38
-81 -62 -168 -50 -26 4 -99 1 -162 -5 -101 -11 -199 -5 -162 8 6 3 12 13 12
24 0 12 7 19 20 19 11 0 20 5 20 10 0 6 18 10 40 10 22 0 40 5 40 10 0 6 18
10 40 10 22 0 40 5 40 10 0 6 40 10 100 10 60 0 100 4 100 10 0 6 9 10 20 10
11 0 20 -4 20 -8z m-1536 -50 c3 -5 -1 -9 -9 -9 -8 0 -12 4 -9 9 3 4 7 8 9 8
2 0 6 -4 9 -8z m496 -12 c0 -5 8 -10 18 -11 14 0 14 -2 -3 -9 -35 -15 -55 -11
-55 10 0 13 7 20 20 20 11 0 20 -4 20 -10z m1660 -83 c0 -21 -42 -64 -68 -70
-34 -8 -52 2 -52 27 0 16 11 25 48 37 61 21 72 22 72 6z m-300 -29 c0 -5 -7
-8 -16 -8 -8 0 -22 -7 -31 -15 -8 -8 -19 -13 -23 -10 -5 3 -19 -8 -31 -25 -25
-34 -54 -38 -99 -15 -34 17 -72 63 -64 77 7 11 264 7 264 -4z m379 -166 c17
-17 21 -27 13 -30 -7 -2 -12 -14 -12 -27 0 -26 1 -26 -117 -51 -72 -15 -91
-15 -144 -4 -58 13 -60 14 -38 26 13 7 30 13 37 14 14 0 42 24 42 35 0 26 85
62 148 62 36 0 52 -6 71 -25z m865 -144 c5 -10 7 -10 12 0 8 18 54 15 54 -4 0
-18 23 -44 39 -44 6 0 11 -9 11 -20 0 -11 6 -20 14 -20 8 0 16 -7 20 -15 3
-10 -3 -17 -22 -21 -15 -4 -30 -12 -34 -17 -7 -11 -38 14 -38 31 0 5 -13 15
-30 22 -16 7 -30 19 -30 26 0 8 -4 14 -10 14 -5 0 -10 14 -10 30 0 30 14 40
24 18z m-991 -400 c-15 -7 -30 -7 -50 0 -26 10 -24 10 22 11 42 0 46 -2 28
-11z m2227 -273 c0 -8 8 -15 18 -15 54 -2 183 -11 219 -16 30 -3 44 -11 48
-25 6 -19 35 -27 35 -9 0 6 6 10 14 10 16 0 30 -59 20 -84 -3 -9 -12 -16 -19
-16 -7 0 -15 -6 -17 -12 -3 -9 -10 -8 -23 5 -14 14 -31 18 -80 16 -77 -3 -169
37 -179 77 -4 14 -18 30 -31 36 -14 6 -25 15 -25 20 0 5 -4 6 -10 3 -5 -3 -10
1 -10 9 0 9 9 16 20 16 11 0 20 -7 20 -15z m1778 -342 c-10 -2 -28 -2 -40 0
-13 2 -5 4 17 4 22 1 32 -1 23 -4z"/>
<path d="M2652 7688 c-15 -20 -23 -54 -16 -72 5 -14 18 -17 65 -15 52 2 59 5
61 23 2 38 -2 60 -15 68 -19 12 -84 9 -95 -4z"/>
<path d="M4225 7689 c-11 -4 -33 -8 -49 -8 -44 -1 -106 -23 -106 -37 0 -23 23
-64 36 -64 7 0 14 -6 17 -12 3 -9 11 -6 24 10 21 22 53 30 53 12 0 -5 6 -10
14 -10 8 0 18 -9 21 -20 3 -11 15 -20 26 -20 10 0 19 -4 19 -10 0 -5 8 -10 18
-10 21 0 51 80 46 125 -1 17 -3 35 -3 40 -1 12 -88 16 -116 4z"/>
<path d="M4463 7580 c-28 -12 -30 -40 -3 -40 11 0 20 -4 20 -10 0 -5 9 -10 19
-10 10 0 21 -7 25 -15 3 -8 17 -15 31 -15 23 0 25 3 25 50 l0 50 -47 -1 c-27
0 -58 -4 -70 -9z"/>
<path d="M3426 7458 c-22 -31 -20 -38 9 -38 14 0 25 5 25 10 0 6 9 10 20 10
23 0 26 10 8 28 -19 19 -45 14 -62 -10z"/>
<path d="M1573 7445 c-18 -20 -16 -25 7 -25 13 0 20 -7 20 -20 0 -18 7 -20 80
-20 72 0 80 2 80 19 0 11 6 21 12 23 9 3 8 9 -4 21 -21 21 -143 24 -152 5 -5
-10 -7 -10 -12 0 -7 15 -16 15 -31 -3z"/>
<path d="M5288 7374 c-37 -20 -35 -40 3 -60 33 -16 73 -15 159 5 25 5 80 10
123 11 44 0 77 4 77 10 0 6 -35 10 -84 10 -46 0 -86 4 -88 9 -1 5 -25 12 -53
14 -27 3 -63 8 -80 10 -17 3 -42 -1 -57 -9z"/>
<path d="M3720 7305 c0 -14 5 -25 10 -25 6 0 10 11 10 25 0 14 -4 25 -10 25
-5 0 -10 -11 -10 -25z"/>
<path d="M6521 7242 c-6 -11 -20 -24 -31 -27 -16 -5 -18 -10 -9 -26 9 -17 19
-20 77 -17 l67 3 -3 34 c-1 19 -4 36 -5 38 -2 1 -21 5 -44 9 -35 5 -43 3 -52
-14z"/>
<path d="M7012 7231 c-19 -13 -20 -51 -2 -61 22 -12 114 -12 150 0 l25 8 -22
7 c-13 4 -23 15 -23 26 0 11 -8 20 -17 21 -53 4 -103 4 -111 -1z"/>
<path d="M7230 6950 c-11 -7 -6 -10 20 -10 26 0 31 3 20 10 -8 5 -17 10 -20
10 -3 0 -12 -5 -20 -10z"/>
<path d="M7168 6943 c6 -2 18 -2 25 0 6 3 1 5 -13 5 -14 0 -19 -2 -12 -5z"/>
<path d="M418 6893 c7 -3 16 -2 19 1 4 3 -2 6 -13 5 -11 0 -14 -3 -6 -6z"/>
<path d="M6442 6875 c-7 -14 -12 -36 -11 -48 0 -12 3 -16 6 -10 3 10 11 9 32
-2 34 -17 40 -18 166 -19 111 -1 165 14 165 45 0 11 6 19 13 20 45 3 -66 19
-171 24 -70 3 -141 8 -158 11 -26 3 -33 0 -42 -21z"/>
<path d="M455 6880 c3 -5 10 -10 16 -10 5 0 9 5 9 10 0 6 -7 10 -16 10 -8 0
-12 -4 -9 -10z"/>
<path d="M7101 6850 c-30 -3 -56 -11 -59 -18 -2 -7 -15 -12 -28 -12 -21 0 -27
-8 -23 -36 0 -4 -5 -11 -13 -15 -25 -16 7 -43 66 -57 48 -10 68 -10 129 4 39
9 93 18 120 21 37 4 47 9 47 24 0 11 -4 19 -9 19 -5 0 -12 9 -16 20 -5 17 -59
37 -81 30 -4 -1 -10 4 -15 11 -9 15 -42 17 -118 9z"/>
<path d="M7480 6790 c0 -5 5 -10 10 -10 6 0 10 5 10 10 0 6 -4 10 -10 10 -5 0
-10 -4 -10 -10z"/>
<path d="M7400 6770 c0 -5 5 -10 10 -10 6 0 10 5 10 10 0 6 -4 10 -10 10 -5 0
-10 -4 -10 -10z"/>
<path d="M7520 6715 c0 -8 -9 -15 -20 -15 -15 0 -20 -7 -20 -29 0 -55 19 -63
144 -55 61 3 113 7 116 7 3 0 16 -2 30 -6 14 -3 44 -8 68 -10 l42 -5 0 48 c0
44 -2 48 -28 53 -16 3 -46 2 -68 -3 -48 -12 -104 -3 -104 16 0 17 -22 18 -37
3 -8 -8 -17 -8 -31 0 -32 17 -92 14 -92 -4z"/>
<path d="M48 6693 c7 -3 16 -2 19 1 4 3 -2 6 -13 5 -11 0 -14 -3 -6 -6z"/>
<path d="M0 6674 c0 -8 5 -12 10 -9 6 3 10 10 10 16 0 5 -4 9 -10 9 -5 0 -10
-7 -10 -16z"/>
<path d="M5693 6595 c-23 -23 -33 -43 -33 -64 0 -17 4 -31 8 -31 5 0 8 -10 8
-21 -1 -12 8 -26 19 -33 11 -6 22 -14 25 -17 3 -3 25 -9 49 -13 59 -9 81 -22
81 -49 0 -23 43 -57 73 -57 8 0 28 -7 43 -15 33 -17 74 -20 74 -5 0 6 -4 10
-10 10 -5 0 -10 16 -10 35 0 24 -6 39 -20 47 -13 9 -20 24 -20 45 0 20 -5 33
-12 33 -19 1 -68 47 -68 63 0 8 -7 17 -15 21 -8 3 -15 13 -15 23 -1 39 -27 57
-87 59 -54 2 -60 0 -90 -31z"/>
<path d="M5600 6530 c0 -5 10 -10 23 -10 18 0 19 2 7 10 -19 13 -30 13 -30 0z"/>
<path d="M7680 6421 c0 -5 -16 -8 -36 -6 -29 2 -38 -2 -41 -16 -3 -11 -14 -19
-24 -19 -11 0 -19 -4 -19 -10 0 -5 9 -10 20 -10 11 0 20 -4 20 -10 0 -5 23
-10 50 -10 28 0 50 4 50 9 0 5 14 11 30 15 25 5 30 10 30 36 0 28 -2 30 -40
30 -22 0 -40 -4 -40 -9z"/>
<path d="M6080 6275 c0 -8 9 -15 20 -15 11 0 20 7 20 15 0 8 -9 15 -20 15 -11
0 -20 -7 -20 -15z"/>
<path d="M7625 5284 c-181 -13 -360 -29 -425 -38 -19 -3 -87 -10 -150 -16 -63
-6 -135 -13 -160 -16 -25 -3 -139 -13 -255 -24 -115 -10 -298 -28 -405 -40
-107 -11 -249 -25 -315 -30 -130 -11 -263 -23 -420 -40 -171 -18 -516 -50
-600 -55 -44 -3 -114 -9 -155 -15 -177 -23 -243 -30 -375 -40 -77 -6 -171 -15
-210 -21 -38 -6 -106 -12 -152 -13 -75 -1 -82 -3 -88 -23 -7 -30 20 -153 43
-195 19 -33 19 -33 93 -32 41 0 94 1 119 1 25 0 104 0 175 -1 117 -1 174 5
340 35 28 5 100 13 160 19 61 5 133 12 160 15 133 13 297 27 470 41 313 24
460 38 615 55 176 20 335 27 341 17 10 -15 183 -1 273 21 39 10 131 21 206 25
74 3 196 13 270 21 148 16 430 42 555 50 44 3 95 8 113 11 l32 5 0 149 0 150
-37 -1 c-21 -1 -119 -8 -218 -15z"/>
<path d="M2725 4850 c3 -5 10 -10 16 -10 5 0 9 5 9 10 0 6 -7 10 -16 10 -8 0
-12 -4 -9 -10z"/>
<path d="M2462 4655 c-16 -34 -15 -38 4 -31 14 5 15 4 4 -9 -7 -8 -9 -15 -6
-15 4 0 2 -9 -4 -20 -11 -21 -44 -27 -55 -10 -3 5 -15 6 -27 1 -17 -6 -28 0
-53 27 -33 37 -64 38 -45 2 5 -10 10 -28 10 -39 0 -24 -36 -65 -50 -56 -17 11
-100 -19 -106 -38 -5 -16 -13 -18 -47 -14 -23 3 -62 10 -86 16 -29 8 -47 8
-55 2 -13 -11 -44 -5 -110 24 -45 19 -91 13 -82 -11 3 -9 2 -12 -5 -9 -14 9
-55 -20 -61 -42 -4 -15 8 -28 49 -55 30 -20 50 -39 45 -42 -5 -3 -47 -4 -94
-3 -81 2 -138 -12 -138 -34 0 -14 110 -22 136 -10 50 22 62 15 60 -34 -1 -29
-5 -45 -14 -45 -7 0 -23 -10 -36 -22 -29 -29 -90 -58 -121 -58 -29 0 -32 -12
-9 -34 21 -21 43 -20 79 4 17 11 41 20 55 20 14 0 33 9 43 20 9 11 26 20 37
20 11 0 20 6 20 13 0 15 27 43 59 61 10 6 28 17 40 24 42 25 20 -7 -29 -43
-45 -33 -50 -41 -50 -75 0 -24 -5 -40 -15 -44 -22 -8 -18 -24 7 -28 31 -4 34
-26 4 -38 -15 -5 -30 -20 -35 -34 -5 -13 -21 -33 -35 -44 -15 -11 -29 -35 -32
-53 -4 -19 -14 -42 -22 -51 -25 -30 1 -20 28 10 14 15 53 52 88 81 34 29 62
58 62 65 0 11 32 52 89 111 16 17 34 41 41 53 20 40 81 102 100 102 17 0 17
-2 4 -32 -8 -18 -24 -49 -34 -68 -11 -19 -27 -52 -36 -72 -9 -21 -20 -38 -25
-38 -5 0 -9 -7 -9 -15 0 -8 -6 -15 -13 -15 -7 0 -25 -37 -41 -87 -16 -49 -39
-113 -52 -143 -32 -79 -37 -100 -25 -100 16 0 13 -36 -4 -50 -10 -9 -15 -9
-15 -1 0 6 5 11 10 11 6 0 10 7 10 15 0 26 -17 17 -68 -37 -110 -118 -134
-153 -126 -185 3 -11 -1 -25 -10 -32 -9 -8 -16 -22 -16 -32 0 -11 -4 -19 -9
-19 -9 0 -51 -61 -51 -75 0 -4 19 14 41 39 23 25 46 46 52 46 5 0 2 -9 -8 -20
-21 -24 -12 -40 13 -22 9 7 25 15 35 18 21 8 23 40 2 48 -27 10 -5 36 31 36
34 0 45 13 22 24 -10 5 -10 7 0 12 6 3 12 14 12 25 0 10 7 19 15 19 8 0 15 -9
15 -20 0 -19 10 -24 38 -21 7 1 12 -10 12 -29 0 -41 25 -39 26 2 1 18 6 34 12
36 6 2 8 10 5 17 -3 9 5 19 21 26 14 7 26 20 26 29 0 9 7 31 16 48 20 40 54
44 54 6 0 -15 4 -23 11 -19 6 4 8 22 4 46 -8 47 2 51 17 8 20 -57 30 -16 27
103 -4 96 -8 119 -27 149 -24 40 -29 58 -9 37 24 -24 77 -118 77 -136 0 -21
17 -49 25 -41 3 4 10 35 16 69 10 64 26 106 36 96 3 -3 0 -12 -6 -20 -7 -8 -8
-17 -3 -20 6 -3 13 2 17 12 6 15 8 15 15 -5 6 -15 3 -34 -9 -60 -28 -59 -43
-135 -33 -163 l10 -25 7 30 c12 53 15 51 9 -7 -4 -39 -3 -58 5 -58 16 0 55
-67 79 -135 21 -62 30 -45 13 28 -10 41 -3 48 17 17 6 -11 18 -17 25 -14 8 3
13 -4 13 -18 1 -159 7 -230 15 -201 5 18 15 32 21 30 7 -1 13 8 14 20 1 24 20
46 47 56 13 5 20 0 27 -16 5 -12 9 -17 10 -12 0 6 5 3 10 -5 8 -12 12 -12 18
-3 5 9 18 -4 38 -40 20 -34 37 -53 52 -55 17 -3 22 -9 20 -31 -1 -15 10 -49
26 -76 16 -26 32 -60 37 -74 7 -21 8 -19 3 9 -4 19 -6 47 -6 63 2 42 -35 178
-56 206 -35 48 -35 56 -1 25 19 -17 40 -29 47 -27 6 3 12 0 12 -6 0 -6 6 -11
14 -11 8 0 24 -12 35 -27 12 -16 25 -34 31 -40 6 -7 11 -16 11 -20 1 -15 9
-16 10 -2 1 8 5 -2 9 -21 6 -29 8 -24 9 31 0 36 4 69 8 72 3 4 7 18 8 32 0 18
-31 57 -131 159 -72 74 -134 132 -138 129 -3 -4 -6 0 -6 8 0 8 -27 44 -60 79
-33 36 -60 71 -60 78 0 6 -5 12 -10 12 -6 0 -10 6 -9 13 3 16 -22 67 -33 67
-5 0 -7 4 -4 9 3 5 -1 14 -9 21 -8 7 -15 21 -15 31 0 10 -4 20 -9 23 -11 7
-21 46 -12 46 4 0 13 -12 19 -26 7 -14 17 -22 22 -19 6 3 10 0 10 -8 0 -8 14
-42 31 -76 24 -47 34 -60 41 -50 7 10 8 9 4 -5 -4 -12 2 -32 16 -52 29 -43 42
-44 24 -1 -27 61 -59 290 -36 257 7 -12 10 -8 10 17 0 41 17 86 30 78 6 -4 5
-16 -2 -33 -51 -123 1 -377 94 -458 l22 -19 -22 36 c-16 26 -20 45 -16 68 5
24 3 31 -9 31 -12 0 -15 12 -14 58 1 31 -2 74 -7 95 -5 30 -4 37 5 31 9 -5 10
1 5 26 -3 19 -3 30 1 26 4 -4 9 -47 9 -96 2 -93 28 -194 65 -256 10 -17 46
-52 79 -78 56 -44 80 -51 80 -23 0 7 -4 6 -10 -3 -5 -8 -10 -10 -10 -4 0 14
33 44 48 44 7 0 12 11 12 25 0 29 -30 45 -85 45 -19 0 -37 5 -41 12 -4 7 -3 8
4 4 14 -8 88 4 75 13 -17 12 -45 72 -39 86 3 8 -6 17 -22 23 -15 6 -43 24 -62
41 -39 35 -56 40 -45 14 4 -10 10 -27 12 -39 3 -12 22 -44 44 -73 40 -52 40
-63 2 -36 -23 16 -63 93 -68 130 -14 94 -16 139 -6 125 6 -8 11 -23 11 -33 0
-20 53 -78 87 -96 27 -14 63 -14 63 0 0 5 -4 7 -10 4 -5 -3 -10 -2 -10 3 0 4
-8 17 -18 28 -18 19 -37 78 -22 69 12 -7 19 72 13 151 -5 64 -4 74 11 74 22 0
20 13 -4 28 -12 7 -25 24 -31 38 -9 24 -11 25 -32 12 -12 -8 -33 -37 -47 -64
-20 -39 -24 -63 -24 -119 l1 -70 -12 69 c-13 71 -10 105 9 118 6 4 -2 8 -18 8
-16 0 -35 -8 -42 -17 -7 -10 -14 -13 -14 -7 0 6 7 17 16 24 8 8 21 27 29 44 7
17 27 46 44 64 17 18 31 39 31 47 0 7 7 15 14 18 8 3 18 22 21 41 5 27 11 33
23 29 16 -6 16 -5 1 13 -26 31 -29 50 -11 75 14 20 14 22 0 17 -21 -8 -58 18
-58 41 0 28 -26 46 -45 31 -8 -7 -12 -16 -9 -21 3 -5 0 -8 -8 -7 -9 2 -14 -10
-15 -37 -2 -32 -1 -36 7 -19 9 24 28 39 36 31 7 -7 -23 -64 -47 -88 -10 -10
-19 -23 -19 -29 0 -5 -3 -9 -7 -8 -18 5 -49 -14 -58 -34 -6 -13 -16 -22 -22
-21 -7 2 -27 -29 -45 -67 -18 -38 -39 -70 -47 -70 -8 0 -11 -6 -7 -15 3 -9 2
-23 -3 -33 -5 -9 -16 -34 -25 -56 -9 -21 -19 -36 -22 -33 -3 3 2 22 10 42 14
33 14 36 0 31 -13 -5 -12 -1 3 27 10 17 21 34 26 35 4 2 7 10 7 18 0 8 5 14
10 14 6 0 10 7 10 15 0 8 5 15 10 15 6 0 10 9 10 20 0 12 29 51 68 90 92 95
90 93 85 123 -6 32 -11 33 -29 10 -12 -16 -13 -16 -14 9 0 15 5 37 11 50 7 16
7 31 0 48 -5 14 -10 18 -11 10 -1 -11 -3 -10 -9 3 -6 17 -8 16 -19 -8z m-77
-115 c-3 -5 -10 -10 -16 -10 -5 0 -9 5 -9 10 0 6 7 10 16 10 8 0 12 -4 9 -10z
m-380 -100 c3 -5 -3 -10 -14 -10 -12 0 -21 5 -21 10 0 6 6 10 14 10 8 0 18 -4
21 -10z m-120 -30 c3 -5 -3 -10 -14 -10 -12 0 -21 5 -21 10 0 6 6 10 14 10 8
0 18 -4 21 -10z m210 0 c3 -5 -1 -10 -9 -10 -8 0 -18 5 -21 10 -3 6 1 10 9 10
8 0 18 -4 21 -10z m15 -67 c-8 -3 -23 -14 -32 -23 -10 -11 -32 -18 -53 -18
-21 0 -45 -8 -56 -18 -10 -9 -22 -14 -26 -10 -4 3 3 13 15 22 12 8 22 22 22
30 0 12 7 14 28 10 15 -3 34 -2 42 4 8 5 29 9 45 9 17 0 23 -3 15 -6z m156
-318 c-13 -29 -21 -57 -18 -61 4 -4 2 -4 -5 0 -6 3 -16 -2 -22 -11 -5 -10 -12
-15 -16 -12 -3 4 6 28 20 55 16 30 25 60 22 76 -2 15 0 25 4 23 4 -3 10 7 14
23 l8 27 9 -33 c7 -27 4 -43 -16 -87z m67 55 c3 -11 1 -20 -4 -20 -5 0 -9 9
-9 20 0 11 2 20 4 20 2 0 6 -9 9 -20z m367 -15 c-6 -16 -8 -35 -5 -43 4 -12 3
-13 -9 -3 -13 11 -13 17 1 47 19 40 28 39 13 -1z m-640 -98 c0 -5 -4 -5 -10
-2 -5 3 -10 14 -10 23 0 15 2 15 10 2 5 -8 10 -19 10 -23z m627 1 c-3 -7 -5
-2 -5 12 0 14 2 19 5 13 2 -7 2 -19 0 -25z m-26 -31 c-8 -8 -11 -5 -11 9 0 27
14 41 18 19 2 -9 -1 -22 -7 -28z m-71 -405 c0 -8 -1 -13 -3 -11 -1 2 -9 12
-16 22 -12 15 -12 17 3 11 9 -3 16 -13 16 -22z m100 -342 c0 -5 -5 -10 -11
-10 -5 0 -7 5 -4 10 3 6 8 10 11 10 2 0 4 -4 4 -10z"/>
<path d="M2711 4604 c0 -11 3 -14 6 -6 3 7 2 16 -1 19 -3 4 -6 -2 -5 -13z"/>
<path d="M2181 4580 c-7 -18 -20 -30 -30 -29 -34 3 -43 -1 -37 -17 5 -12 2
-15 -10 -10 -8 3 -33 3 -55 0 -32 -5 -37 -9 -28 -20 13 -16 119 -20 119 -4 0
6 9 10 21 10 15 0 19 5 15 15 -4 12 2 14 27 12 27 -2 33 2 35 21 2 14 -4 29
-15 37 -25 20 -26 19 -42 -15z"/>
<path d="M2430 4588 c0 -4 4 -8 9 -8 6 0 12 4 15 8 3 5 -1 9 -9 9 -8 0 -15 -4
-15 -9z"/>
<path d="M2672 4563 c-6 -2 -10 -9 -7 -13 7 -11 35 -2 35 11 0 10 -8 10 -28 2z"/>
<path d="M2740 4501 c0 -11 4 -21 9 -21 18 0 21 18 6 30 -13 10 -15 9 -15 -9z"/>
<path d="M2711 4394 c0 -11 3 -14 6 -6 3 7 2 16 -1 19 -3 4 -6 -2 -5 -13z"/>
<path d="M1380 4340 c0 -5 7 -10 15 -10 8 0 15 5 15 10 0 6 -7 10 -15 10 -8 0
-15 -4 -15 -10z"/>
<path d="M2913 4046 c-13 -6 -23 -14 -23 -18 0 -14 17 -9 41 12 26 21 17 24
-18 6z"/>
<path d="M2848 4023 c6 -2 18 -2 25 0 6 3 1 5 -13 5 -14 0 -19 -2 -12 -5z"/>
<path d="M2742 3980 c0 -19 2 -27 5 -17 2 9 2 25 0 35 -3 9 -5 1 -5 -18z"/>
<path d="M1640 3970 c0 -5 -16 -10 -35 -10 -39 0 -78 -31 -73 -58 2 -12 15
-18 45 -20 41 -3 42 -2 62 42 24 51 25 56 11 56 -5 0 -10 -4 -10 -10z"/>
<path d="M2757 3944 c-10 -20 -16 -39 -13 -42 3 -3 8 3 12 12 3 9 9 14 13 12
4 -3 8 9 9 25 1 16 1 29 0 29 -2 0 -11 -17 -21 -36z"/>
<path d="M1363 3953 c-19 -7 -16 -22 5 -21 9 0 23 -1 31 -3 7 -2 16 2 19 10 3
10 0 12 -13 7 -10 -4 -21 -3 -24 2 -3 5 -12 7 -18 5z"/>
<path d="M1345 3910 c-2 -3 -22 -13 -45 -20 -22 -7 -45 -19 -51 -27 -6 -7 -24
-13 -39 -13 -15 0 -33 -7 -40 -15 -11 -13 -6 -15 33 -15 25 0 49 5 52 10 3 6
23 10 43 10 40 0 76 19 92 49 8 16 5 20 -15 24 -14 2 -27 1 -30 -3z"/>
<path d="M4070 3885 c0 -9 -6 -26 -14 -38 -7 -12 -16 -44 -20 -72 -4 -33 -13
-56 -27 -67 -14 -12 -20 -28 -19 -50 1 -18 1 -37 0 -43 -2 -5 -3 -19 -4 -30
-1 -11 -7 -19 -14 -17 -8 1 -11 -2 -7 -8 4 -6 -6 -15 -22 -20 -29 -11 -63 -69
-63 -110 0 -11 -4 -20 -10 -20 -5 0 -10 -6 -10 -14 0 -8 -6 -16 -14 -19 -8 -3
-24 -23 -36 -45 -21 -38 -23 -39 -49 -27 -14 7 -46 16 -70 20 l-43 7 6 -38 c3
-22 2 -46 -4 -54 -8 -13 -10 -12 -10 3 0 10 -5 15 -10 12 -7 -4 -9 2 -4 19 5
20 2 26 -10 26 -11 0 -15 -9 -14 -35 1 -40 -18 -68 -42 -60 -29 9 -42 -21 -45
-107 -3 -101 -26 -177 -66 -223 -35 -40 -97 -65 -109 -44 -6 9 3 18 28 30 67
32 104 75 108 126 2 23 -3 44 -12 54 -13 14 -13 19 -1 31 8 7 16 36 19 63 4
39 3 45 -5 28 -6 -15 -19 -23 -36 -24 -22 0 -23 -2 -7 -8 20 -8 31 -41 17 -51
-4 -3 -18 -27 -30 -55 -37 -81 -49 -100 -65 -97 -9 1 -29 -4 -45 -13 -44 -22
-54 -70 -34 -154 15 -65 15 -66 -8 -105 -13 -21 -41 -57 -61 -81 -21 -23 -38
-47 -38 -53 0 -6 -4 -12 -10 -14 -5 -1 -14 -23 -18 -48 -12 -61 -66 -169 -109
-220 -19 -22 -53 -50 -74 -61 -36 -18 -39 -22 -39 -63 0 -70 -14 -90 -20 -29
l-5 52 -38 -47 c-21 -26 -45 -56 -53 -67 l-14 -20 7 20 c3 11 13 30 21 43 11
16 12 26 4 34 -7 7 -2 17 18 35 16 13 34 39 40 58 6 18 18 39 26 45 18 16 18
37 -1 37 -8 0 -12 -4 -9 -9 3 -4 -9 -28 -25 -52 -17 -25 -31 -50 -31 -56 0 -6
-4 -9 -8 -6 -5 3 -17 -12 -27 -32 -10 -20 -19 -32 -22 -26 -4 12 33 101 47
109 4 3 7 19 5 35 -2 16 0 32 6 35 14 9 11 23 -6 27 -13 3 -13 8 4 41 10 20
15 37 10 37 -12 0 -11 23 2 57 8 22 12 24 19 13 6 -8 10 -13 11 -10 0 3 2 13
4 23 7 37 -62 7 -80 -35 -8 -18 -15 -26 -15 -18 -2 23 -20 -29 -31 -89 -12
-61 -29 -83 -62 -80 -12 1 -30 -2 -40 -6 -10 -4 -20 -5 -23 -3 -8 9 8 38 21
38 15 0 45 43 45 65 0 8 4 15 8 15 5 0 21 24 36 54 26 52 83 103 138 125 16 7
18 10 6 10 -13 1 -15 9 -12 41 3 26 1 40 -7 40 -7 0 -10 12 -7 31 4 25 0 33
-18 41 -27 13 -54 -3 -54 -32 0 -10 -7 -23 -16 -30 -10 -9 -14 -26 -12 -48 3
-31 0 -36 -23 -42 -31 -9 -59 16 -59 53 0 21 -45 77 -53 66 -2 -2 -12 -46 -22
-98 -18 -98 -37 -155 -55 -166 -5 -3 -10 -26 -10 -51 0 -25 -4 -53 -8 -62 -5
-9 -7 -41 -4 -69 4 -59 15 -65 59 -36 25 17 26 17 18 -7 -4 -14 -13 -29 -20
-35 -19 -16 -25 -95 -12 -150 14 -54 37 -73 37 -30 0 30 28 77 41 69 5 -3 9
-38 9 -79 0 -40 3 -81 6 -90 13 -32 96 -79 144 -81 182 -7 316 -34 363 -73 24
-20 61 -91 51 -99 -4 -4 -9 -1 -12 7 -14 40 -119 100 -157 90 -9 -2 -59 4
-137 16 -16 3 -28 1 -28 -4 0 -16 142 -151 179 -171 55 -29 10 -25 -54 5 -29
14 -58 32 -65 40 -7 8 -16 13 -20 10 -4 -3 -10 2 -14 10 -12 33 -21 12 -21
-53 -1 -42 -7 -78 -17 -98 -10 -17 -22 -69 -27 -115 -7 -53 -17 -89 -27 -99
-11 -9 -14 -10 -9 -2 10 18 14 197 5 212 -8 13 -49 -46 -51 -71 0 -8 -5 0 -10
16 -5 17 -6 49 -3 73 4 29 3 42 -5 42 -7 0 -10 4 -7 8 8 13 -6 26 -62 60 -65
40 -85 33 -71 -26 14 -62 11 -177 -7 -208 l-16 -29 6 28 c8 34 -8 35 -30 2
-21 -32 -49 -34 -40 -2 3 12 6 26 6 30 0 5 9 5 20 2 16 -5 20 -2 19 17 0 13 5
46 12 75 6 29 8 60 4 70 -6 15 -10 13 -21 -14 -8 -18 -19 -33 -24 -33 -6 0
-10 -9 -10 -20 0 -11 -4 -20 -9 -20 -5 0 -16 -19 -26 -42 -17 -44 -30 -58 -54
-58 -9 0 -11 6 -6 18 4 9 14 44 21 77 15 71 41 165 47 171 2 3 -1 21 -8 42
-17 50 -48 55 -64 11 -15 -42 -23 -32 -25 30 -1 32 -8 57 -18 67 -15 15 -17
15 -37 -5 -26 -26 -35 -27 -21 -1 9 16 8 22 -5 26 -24 10 -29 -2 -15 -35 12
-30 7 -51 -11 -51 -6 0 -8 9 -4 20 3 11 1 28 -5 37 -8 13 -9 -4 -4 -66 5 -55
3 -85 -4 -90 -7 -4 -6 -21 5 -54 15 -46 33 -63 33 -31 0 8 5 12 10 9 7 -4 7
-12 0 -25 -5 -10 -10 -28 -10 -40 0 -23 -19 -23 -31 1 -3 8 -16 34 -28 59 -15
32 -19 37 -14 16 5 -25 3 -28 -12 -22 -16 6 -17 2 -11 -36 5 -31 3 -39 -4 -28
-8 11 -9 7 -4 -15 4 -16 11 -31 15 -33 4 -2 5 -10 2 -18 -3 -8 -1 -14 5 -14
12 0 23 -38 13 -45 -5 -2 -18 7 -29 20 -27 31 -57 34 -49 5 3 -11 1 -20 -4
-20 -5 0 -9 9 -9 19 0 34 -17 32 -30 -2 -7 -17 -21 -51 -31 -74 -11 -24 -19
-48 -19 -54 0 -6 -25 -63 -55 -125 -51 -108 -56 -115 -98 -133 -25 -11 -48
-24 -52 -30 -13 -22 -214 -141 -238 -141 -4 0 -7 8 -5 18 3 14 -4 17 -44 14
-57 -4 -88 10 -43 18 17 4 29 11 28 17 -2 7 13 17 32 23 19 6 35 16 35 21 0 5
8 9 18 9 9 0 33 10 52 22 19 12 56 34 81 48 109 60 166 133 174 221 3 30 8 67
11 82 5 24 3 28 -12 25 -19 -3 -103 -149 -103 -180 -1 -12 -9 -18 -26 -18 -18
0 -26 -7 -31 -25 -3 -14 -10 -22 -16 -19 -5 4 -5 11 2 19 6 7 8 19 5 26 -3 8
4 32 15 54 11 21 20 46 20 55 0 9 4 20 9 26 6 5 13 34 17 64 7 51 6 54 -10 41
-19 -16 -56 -95 -56 -121 0 -10 -6 -23 -14 -29 -8 -7 -17 -27 -20 -46 -7 -34
-26 -49 -26 -20 0 8 -2 15 -5 15 -12 0 -53 -47 -75 -85 -23 -39 -63 -89 -122
-152 -19 -20 -28 -39 -24 -48 4 -12 1 -15 -13 -10 -26 8 -71 -15 -71 -37 0
-10 -7 -18 -16 -18 -9 0 -12 5 -8 12 5 8 -2 9 -23 5 -24 -5 -37 -1 -58 18 -14
14 -37 25 -49 25 -19 0 -36 16 -36 35 0 2 24 6 53 10 107 14 212 58 270 113
58 54 100 131 105 188 7 86 -2 94 -44 40 -47 -62 -57 -51 -11 13 46 63 77 125
77 151 0 11 10 40 22 63 26 51 40 207 15 172 -24 -35 -27 -53 -9 -58 13 -3 11
-5 -5 -6 -12 -1 -24 -10 -28 -22 -4 -12 -12 -18 -21 -15 -8 3 -14 -1 -14 -8 0
-8 -4 -16 -8 -18 -11 -4 -112 -207 -112 -225 0 -10 -4 -11 -19 -1 -18 11 -18
13 4 57 97 200 116 249 171 426 30 100 74 205 86 205 4 0 8 9 8 19 0 25 20 38
20 14 1 -17 2 -17 15 1 30 40 23 9 -9 -39 -36 -54 -69 -125 -58 -125 11 1 62
72 62 86 0 7 9 18 20 24 11 6 20 20 20 30 0 11 5 20 10 20 10 0 60 102 60 121
0 16 -32 10 -89 -17 -62 -30 -149 -114 -158 -154 -3 -14 -11 -44 -19 -68 -8
-23 -14 -54 -14 -67 0 -13 -5 -27 -10 -30 -6 -3 -10 -21 -10 -39 0 -17 -4 -36
-9 -41 -5 -6 -18 -37 -31 -70 -41 -113 -136 -235 -172 -223 -17 6 -48 -36
-104 -142 -45 -84 -126 -180 -151 -180 -7 0 -13 -4 -13 -9 0 -12 -49 -21 -56
-10 -2 5 22 36 56 69 33 34 60 67 60 73 0 7 7 25 16 42 8 16 20 68 25 115 6
47 15 99 21 115 12 29 56 88 110 147 38 40 10 49 -30 9 -17 -16 -51 -43 -75
-59 -47 -33 -72 -85 -55 -116 7 -12 5 -23 -4 -34 -21 -25 -108 -190 -108 -205
0 -13 -70 -87 -82 -87 -11 0 9 56 37 105 27 46 27 46 6 52 -20 5 -30 23 -12
23 4 0 17 21 27 47 11 27 21 51 22 55 2 5 -8 8 -22 8 -20 0 -26 5 -26 23 0 30
34 92 50 92 7 0 16 9 21 20 12 31 11 47 -3 39 -6 -4 -2 8 9 27 30 49 73 135
73 147 0 6 -15 -2 -32 -19 -18 -16 -37 -29 -43 -29 -5 0 -35 -25 -65 -55 -30
-30 -60 -55 -67 -55 -6 0 -14 -9 -18 -19 -3 -11 -19 -24 -35 -30 -17 -5 -30
-16 -30 -24 0 -22 -27 -41 -33 -25 -9 22 -27 -13 -20 -39 4 -19 1 -23 -17 -23
-33 0 -67 41 -42 52 4 2 33 35 64 73 30 39 65 79 77 89 11 11 21 27 21 36 0
10 11 34 25 55 35 50 66 133 53 141 -10 6 -13 4 -97 -69 -43 -38 -56 -45 -68
-36 -12 10 -8 18 20 48 75 78 107 173 48 142 -11 -7 -21 -17 -21 -23 0 -6 -3
-9 -6 -5 -7 7 -48 -45 -63 -80 -6 -13 -18 -23 -27 -23 -13 0 -16 7 -11 35 11
65 -33 44 -158 -74 -79 -74 -195 -201 -195 -213 0 -5 -14 -21 -30 -35 -35 -29
-64 -79 -55 -93 11 -18 35 -11 35 10 0 16 7 20 30 20 17 0 30 5 30 10 0 6 6
10 13 10 16 1 51 31 59 50 9 24 56 46 69 33 21 -21 13 -66 -16 -88 -15 -11
-41 -34 -59 -52 -17 -17 -44 -35 -61 -39 -16 -4 -43 -18 -58 -31 -16 -12 -33
-23 -38 -23 -5 0 -9 -6 -9 -13 0 -16 -41 -57 -57 -57 -20 0 -113 -97 -113
-118 0 -19 6 -20 67 -20 37 0 78 4 91 9 24 9 68 54 77 79 7 20 61 50 91 50 15
0 24 6 24 15 0 8 9 15 20 15 11 0 20 7 20 15 0 8 9 15 20 15 11 0 20 5 20 10
0 6 12 10 26 10 15 0 43 14 66 34 41 36 68 38 68 5 0 -12 7 -19 20 -19 14 0
20 -7 20 -23 0 -13 4 -27 10 -33 11 -11 -19 -110 -51 -164 -5 -8 -12 -22 -16
-30 -4 -8 -13 -20 -22 -26 -8 -6 -16 -20 -17 -31 -3 -18 2 -19 56 -15 40 3 60
1 60 -7 0 -6 -11 -13 -25 -17 -14 -3 -34 -17 -44 -30 -11 -13 -29 -24 -43 -24
-13 0 -29 -5 -35 -11 -6 -6 -22 -16 -34 -23 -22 -11 -65 -61 -144 -169 -56
-76 -137 -132 -87 -60 61 89 125 214 114 225 -4 4 -52 8 -106 9 -86 1 -101 -1
-113 -16 -15 -22 -15 -22 -36 33 -11 31 -13 50 -6 68 17 47 13 51 -56 59 -48
5 -73 13 -94 31 -16 13 -34 24 -40 24 -11 0 -37 -40 -33 -53 1 -4 -5 -10 -14
-14 -23 -8 -38 -54 -22 -65 10 -6 9 -11 -5 -19 -22 -13 -23 -81 -2 -99 12 -10
13 -15 3 -28 -10 -11 -14 -121 -16 -464 l-3 -448 1708 3 c939 2 1720 6 1734 9
15 3 45 18 68 33 42 29 56 43 22 25 -11 -5 -32 -15 -48 -20 l-28 -10 23 19
c12 11 22 22 22 25 0 3 14 26 31 51 23 34 36 44 48 40 25 -11 45 -11 46 0 2
19 28 65 37 65 5 0 7 4 4 9 -3 5 4 16 17 24 42 28 87 77 93 102 3 14 18 34 33
44 14 11 43 52 64 93 47 89 94 157 141 202 20 18 36 42 36 52 0 20 62 94 78
94 5 0 15 7 22 15 10 12 10 18 0 30 -18 21 -2 38 31 31 32 -6 40 2 41 44 1 17
6 35 13 40 9 8 14 -3 18 -43 6 -49 2 -81 -19 -131 -5 -14 -4 -17 4 -12 7 4 15
1 18 -8 8 -21 41 -20 53 1 7 14 12 15 24 4 9 -7 17 -22 19 -34 5 -36 45 -34
84 4 19 18 34 39 34 46 0 20 29 75 50 95 17 16 18 15 24 -12 10 -54 38 -71
112 -67 82 5 95 16 61 53 -21 22 -24 34 -19 63 8 55 20 61 66 37 29 -16 40
-18 43 -8 6 15 28 38 45 46 10 5 10 7 1 12 -7 3 -13 12 -13 19 0 7 -6 16 -12
18 -7 3 -3 6 8 6 29 1 68 -32 84 -69 7 -16 16 -30 21 -30 19 0 31 45 25 96 -5
43 -3 53 11 58 14 6 14 9 -5 22 -12 8 -31 34 -42 57 l-21 42 31 28 c17 15 39
27 50 27 14 0 20 8 22 32 4 39 17 44 46 18 22 -21 32 -14 11 7 -7 7 -8 19 -4
30 11 25 12 55 2 76 -4 10 -10 47 -13 84 -5 69 11 113 41 113 8 0 15 5 15 11
0 5 29 24 65 40 36 16 65 33 65 38 0 12 99 163 121 184 10 9 23 17 29 17 5 0
10 7 10 15 0 8 -5 15 -10 15 -19 0 -50 65 -50 105 0 30 3 36 10 25 7 -11 10
-11 10 -2 0 7 5 10 10 7 6 -3 10 -17 10 -31 0 -25 21 -41 39 -30 6 4 6 20 -2
44 -16 46 -12 75 14 98 16 14 24 16 38 7 27 -17 61 22 61 70 0 24 7 44 21 58
28 28 11 39 -55 37 -40 -1 -53 3 -68 21 -10 13 -18 36 -18 52 0 30 30 69 54
69 17 0 38 33 55 87 15 46 18 40 -54 133 -19 25 -45 68 -58 95 -22 46 -22 51
-7 57 9 3 29 27 44 52 29 49 25 70 -19 107 -11 9 -29 34 -40 54 -17 33 -18 39
-4 63 8 15 29 35 48 44 l33 16 -34 17 c-56 29 -98 65 -98 85 0 10 13 27 30 37
29 17 41 55 21 67 -5 4 -12 29 -16 56 -8 60 -19 68 -113 80 -103 14 -136 21
-152 35 -8 6 -42 18 -75 25 -33 7 -87 26 -120 43 -59 30 -158 54 -265 64 -30
3 -60 9 -66 14 -7 5 -25 11 -40 14 -16 2 -56 13 -89 24 -33 11 -85 23 -115 26
-30 4 -77 13 -105 22 -27 8 -64 19 -81 24 -46 14 -74 11 -74 -6z m-415 -1387
c24 -13 144 -95 250 -171 18 -13 18 -15 3 -31 -21 -20 -42 -20 -62 -1 -8 9
-30 22 -49 30 -18 8 -39 21 -47 30 -7 8 -28 23 -47 32 -19 9 -38 26 -43 37 -4
12 -19 37 -33 57 -27 39 -20 43 28 17z m-2826 -714 c2 -2 -12 -20 -32 -39 -19
-19 -41 -50 -48 -70 -13 -36 -35 -46 -45 -21 -7 18 21 72 41 79 8 4 15 14 15
23 0 10 6 14 14 11 10 -4 12 0 8 15 -4 18 -2 19 19 13 13 -4 26 -9 28 -11z
m1451 -349 c0 -8 -2 -15 -4 -15 -2 0 -6 7 -10 15 -3 8 -1 15 4 15 6 0 10 -7
10 -15z m-728 -272 c-33 -46 -139 -143 -157 -143 -9 0 -29 -8 -43 -19 -44 -30
-122 -52 -202 -57 l-75 -4 90 19 c86 17 171 45 206 66 19 12 95 75 153 128 49
44 54 46 28 10z m912 -20 c-38 -38 -58 -46 -25 -10 19 20 37 35 39 33 2 -3 -4
-13 -14 -23z m246 13 c0 -3 -4 -8 -10 -11 -5 -3 -10 -1 -10 4 0 6 5 11 10 11
6 0 10 -2 10 -4z m-320 -66 c0 -5 -5 -10 -11 -10 -5 0 -7 5 -4 10 3 6 8 10 11
10 2 0 4 -4 4 -10z m204 -15 c-27 -20 -127 -55 -155 -55 -21 1 -20 3 10 15 18
8 41 15 50 15 9 0 36 11 61 24 48 25 67 25 34 1z m-288 -60 c-8 -8 -27 -15
-43 -14 -28 1 -28 1 7 14 47 18 54 18 36 0z m-99 -41 c-3 -3 -12 -4 -19 -1 -8
3 -5 6 6 6 11 1 17 -2 13 -5z m-349 -143 c-13 -17 -27 -30 -32 -30 -8 -1 -2 8
29 46 6 7 14 12 18 13 5 0 -2 -13 -15 -29z m-120 -131 c-7 -10 -14 -17 -16
-15 -2 1 -18 -13 -36 -32 -20 -23 -39 -34 -51 -32 -16 3 -7 14 40 51 65 51 82
59 63 28z m-178 -140 c0 -5 -5 -10 -11 -10 -5 0 -7 5 -4 10 3 6 8 10 11 10 2
0 4 -4 4 -10z m-200 -160 c-75 -67 -86 -63 -16 6 32 30 61 53 64 49 4 -3 -18
-28 -48 -55z"/>
<path d="M1523 3833 c-15 -5 -18 -33 -4 -33 13 0 33 28 24 33 -4 2 -14 2 -20
0z"/>
<path d="M1810 3776 c-12 -20 -19 -44 -17 -53 4 -17 5 -17 6 0 0 10 5 16 10
12 9 -5 35 65 27 72 -2 2 -14 -12 -26 -31z"/>
<path d="M2930 3801 c0 -6 4 -13 10 -16 6 -3 7 1 4 9 -7 18 -14 21 -14 7z"/>
<path d="M2872 3760 c0 -14 2 -19 5 -12 2 6 2 18 0 25 -3 6 -5 1 -5 -13z"/>
<path d="M1095 3750 c-3 -5 1 -10 9 -10 9 0 16 5 16 10 0 6 -4 10 -9 10 -6 0
-13 -4 -16 -10z"/>
<path d="M2800 3740 c0 -19 3 -21 12 -12 9 9 9 15 0 24 -9 9 -12 7 -12 -12z"/>
<path d="M3193 3720 c-6 -23 -23 -27 -23 -5 0 21 -20 19 -20 -2 -1 -16 -2 -16
-15 1 -15 19 -15 19 -15 -2 0 -12 5 -22 10 -22 6 0 10 -7 10 -15 0 -18 17 -20
23 -2 2 6 2 2 0 -10 -2 -14 4 -30 16 -40 11 -9 18 -20 15 -24 -2 -4 9 -12 26
-17 16 -6 38 -25 49 -42 10 -17 29 -39 41 -47 21 -15 22 -15 15 8 -4 13 -16
39 -26 57 -24 42 -24 49 1 57 11 3 20 13 20 21 0 8 5 14 12 14 9 0 9 3 1 11
-8 8 -23 5 -53 -11 -50 -26 -70 -21 -69 17 0 25 1 26 9 8 l9 -20 0 20 c2 54
-25 87 -36 45z"/>
<path d="M2922 3709 c2 -7 15 -14 28 -16 27 -4 25 -1 -9 17 -19 9 -22 9 -19
-1z"/>
<path d="M3306 3707 c3 -10 9 -15 12 -12 3 3 0 11 -7 18 -10 9 -11 8 -5 -6z"/>
<path d="M1780 3690 c0 -5 -9 -19 -20 -30 -11 -11 -16 -20 -12 -20 9 0 33 25
46 48 4 6 2 12 -3 12 -6 0 -11 -4 -11 -10z"/>
<path d="M2857 3634 c-3 -18 -1 -24 8 -20 7 2 30 -4 51 -15 50 -25 63 -24 30
2 -21 16 -24 24 -15 30 15 9 9 12 -42 23 -23 5 -27 2 -32 -20z"/>
<path d="M3141 3611 c13 -11 26 -17 28 -15 5 5 -30 33 -43 34 -4 0 2 -9 15
-19z"/>
<path d="M2042 3515 c-16 -35 -15 -65 2 -65 15 0 30 70 17 83 -4 4 -13 -4 -19
-18z"/>
<path d="M3357 3533 c-15 -14 -5 -43 28 -83 40 -47 44 -41 16 22 -25 55 -36
70 -44 61z"/>
<path d="M2873 3520 c-28 -11 -29 -20 -2 -54 25 -32 35 -33 43 -4 4 18 8 20
18 10 6 -6 20 -12 30 -12 21 0 25 39 6 58 -14 14 -63 15 -95 2z"/>
<path d="M3079 3512 c-2 -31 2 -40 31 -72 16 -18 35 -29 42 -27 10 4 10 6 1 6
-7 1 -13 12 -13 25 0 39 -17 73 -39 79 -15 4 -21 0 -22 -11z"/>
<path d="M3416 3471 c-3 -5 1 -14 9 -21 12 -10 15 -10 15 3 0 19 -16 31 -24
18z"/>
<path d="M1976 3454 c-10 -25 1 -29 14 -5 6 12 7 21 1 21 -5 0 -12 -7 -15 -16z"/>
<path d="M3277 3450 c3 -11 12 -20 21 -20 13 0 12 3 -3 20 -10 11 -19 20 -21
20 -1 0 0 -9 3 -20z"/>
<path d="M3449 3393 c-4 -31 -2 -53 8 -85 7 -22 8 -38 3 -38 -5 0 -12 11 -16
25 -4 14 -9 24 -11 21 -8 -7 17 -76 28 -76 5 0 9 5 9 12 0 6 3 8 7 5 7 -8 33
46 33 69 0 8 -5 13 -12 12 -7 -2 -17 7 -23 20 -5 12 -13 22 -18 22 -4 0 -5 5
-2 10 3 6 4 10 1 10 -3 0 -6 -3 -7 -7z"/>
<path d="M2030 3381 c0 -6 5 -13 10 -16 6 -3 10 1 10 9 0 9 -4 16 -10 16 -5 0
-10 -4 -10 -9z"/>
<path d="M2850 3354 c-6 -14 -10 -36 -10 -50 0 -19 5 -24 24 -24 14 0 28 -4
31 -10 13 -20 24 -10 15 14 -5 13 -6 34 -3 46 4 15 2 21 -4 17 -6 -4 -13 2
-16 13 -7 28 -26 25 -37 -6z"/>
<path d="M2293 3355 c-3 -9 -3 -18 -1 -21 3 -3 8 4 11 16 6 23 -1 27 -10 5z"/>
<path d="M3116 3345 c-9 -25 4 -43 30 -40 35 3 38 10 17 34 -21 25 -39 27 -47
6z"/>
<path d="M3310 3350 c0 -5 -7 -10 -16 -10 -14 0 -15 -3 -3 -21 8 -11 18 -20
24 -20 12 1 16 61 4 61 -5 0 -9 -4 -9 -10z"/>
<path d="M2187 3343 c-4 -3 -7 -11 -7 -17 0 -6 5 -5 12 2 6 6 9 14 7 17 -3 3
-9 2 -12 -2z"/>
<path d="M7395 3341 c3 -5 1 -12 -5 -16 -5 -3 -10 -19 -10 -34 0 -15 -4 -31
-9 -36 -6 -6 -6 -25 -1 -45 6 -26 8 -29 9 -11 1 13 12 32 26 43 28 22 33 48 9
48 -14 0 -14 2 1 16 12 12 13 19 4 30 -13 16 -34 19 -24 5z"/>
<path d="M1902 3295 c-16 -35 -15 -37 8 -23 11 7 20 21 20 30 0 26 -15 22 -28
-7z"/>
<path d="M2050 3288 c0 -7 -3 -24 -6 -38 -5 -24 -5 -24 10 -6 18 22 21 56 6
56 -5 0 -10 -6 -10 -12z"/>
<path d="M2286 3275 c-3 -8 -1 -15 4 -15 6 0 10 7 10 15 0 8 -2 15 -4 15 -2 0
-6 -7 -10 -15z"/>
<path d="M7280 3252 c0 -13 23 -32 39 -32 11 0 10 4 -4 20 -19 21 -35 26 -35
12z"/>
<path d="M2215 3221 c-9 -18 -11 -31 -5 -31 11 0 34 50 26 57 -2 3 -12 -9 -21
-26z"/>
<path d="M2131 3214 c0 -11 3 -14 6 -6 3 7 2 16 -1 19 -3 4 -6 -2 -5 -13z"/>
<path d="M2231 3184 c-12 -27 -11 -28 4 -12 10 9 16 21 13 28 -2 7 -10 -1 -17
-16z"/>
<path d="M3283 3189 c-6 -6 -9 -18 -6 -25 3 -8 0 -14 -6 -14 -6 0 -11 5 -11
10 0 6 -4 10 -10 10 -5 0 -10 -6 -10 -13 0 -8 -10 -19 -22 -25 -13 -6 -17 -11
-9 -11 11 -1 11 -4 1 -16 -11 -14 -15 -14 -29 -1 -15 13 -16 8 -17 -55 l-1
-69 29 0 c26 0 28 3 29 38 l1 37 9 -32 c9 -31 29 -46 29 -22 0 8 5 7 16 -2 20
-16 33 2 34 46 1 29 1 29 15 11 14 -19 15 -19 15 7 0 15 -7 44 -15 64 -8 19
-15 44 -15 54 0 21 -11 24 -27 8z m-43 -99 c0 -5 -4 -10 -10 -10 -5 0 -10 5
-10 10 0 6 5 10 10 10 6 0 10 -4 10 -10z"/>
<path d="M2283 3174 c-4 -11 -8 -12 -13 -4 -5 7 -18 -4 -39 -31 -28 -39 -37
-59 -27 -59 11 0 56 52 56 65 0 9 4 14 9 10 6 -3 15 4 21 15 6 11 8 20 5 20
-3 0 -8 -7 -12 -16z"/>
<path d="M3330 3180 c0 -5 5 -10 11 -10 5 0 7 5 4 10 -3 6 -8 10 -11 10 -2 0
-4 -4 -4 -10z"/>
<path d="M2809 3112 c5 -34 6 -35 9 -8 2 16 0 32 -5 37 -5 5 -7 -7 -4 -29z"/>
<path d="M1876 3106 c-23 -49 -19 -59 5 -13 11 22 18 41 16 43 -2 3 -12 -11
-21 -30z"/>
<path d="M1992 3084 c-7 -14 -8 -23 -2 -19 15 9 32 45 22 45 -5 0 -14 -12 -20
-26z"/>
<path d="M2112 3079 c-7 -11 -17 -32 -22 -45 -15 -39 9 -18 27 23 16 40 13 52
-5 22z"/>
<path d="M2660 3085 c0 -9 5 -15 11 -13 6 2 11 8 11 13 0 5 -5 11 -11 13 -6 2
-11 -4 -11 -13z"/>
<path d="M2500 3058 c0 -12 5 -62 12 -112 l12 -91 7 50 c8 61 0 117 -14 108
-7 -4 -8 7 -4 30 3 21 2 37 -4 37 -5 0 -9 -10 -9 -22z"/>
<path d="M2815 3040 c-4 -17 -5 -34 -2 -36 2 -3 7 10 11 27 8 42 0 50 -9 9z"/>
<path d="M2040 3029 c0 -5 5 -7 10 -4 6 3 10 8 10 11 0 2 -4 4 -10 4 -5 0 -10
-5 -10 -11z"/>
<path d="M2457 2995 c3 -27 12 -63 19 -80 12 -28 13 -27 7 25 -3 30 -12 66
-19 80 -12 23 -13 21 -7 -25z"/>
<path d="M7320 2990 c0 -6 7 -10 15 -10 8 0 15 2 15 4 0 2 -7 6 -15 10 -8 3
-15 1 -15 -4z"/>
<path d="M7360 2972 c0 -5 9 -17 20 -27 15 -14 20 -15 20 -4 0 8 -9 20 -20 27
-11 7 -20 8 -20 4z"/>
<path d="M3153 2923 c4 -32 8 -38 28 -38 19 0 23 5 21 23 -1 17 4 25 18 29 32
8 12 23 -31 23 l-40 0 4 -37z"/>
<path d="M7504 2926 c8 -44 -18 -116 -36 -98 -18 18 -28 14 -28 -10 0 -14 -16
-37 -40 -58 -22 -19 -40 -40 -40 -47 0 -18 -41 -43 -72 -43 -19 0 -29 -6 -34
-22 -4 -12 -17 -31 -30 -41 -13 -10 -24 -24 -24 -32 0 -7 -20 -28 -45 -46 -24
-19 -49 -47 -56 -64 -9 -23 -13 -26 -16 -12 -7 26 -21 21 -66 -25 -22 -24 -44
-42 -49 -40 -4 1 -8 -2 -8 -7 0 -5 -18 -12 -41 -16 -39 -7 -41 -8 -35 -37 3
-17 17 -44 32 -61 27 -32 27 -33 -2 -134 -10 -36 -23 -58 -43 -72 -45 -32 -61
-28 -54 14 5 32 1 40 -36 75 -48 46 -76 50 -110 15 -13 -14 -29 -25 -37 -25
-8 0 -14 -8 -14 -18 0 -26 71 -49 102 -35 20 9 27 6 51 -20 15 -17 27 -38 27
-46 0 -9 14 -34 30 -55 30 -39 35 -60 24 -90 -11 -29 -94 7 -94 41 0 20 -66
83 -88 83 -14 0 -21 -9 -26 -31 -4 -24 -10 -30 -22 -25 -9 4 -22 2 -29 -4 -7
-6 -19 -9 -26 -8 -20 4 -13 -58 9 -97 25 -42 44 -38 62 13 16 46 28 52 54 23
17 -18 17 -21 1 -45 -26 -39 -36 -98 -21 -116 7 -8 16 -24 19 -35 3 -11 18
-51 33 -90 19 -50 28 -92 30 -147 l2 -78 -31 0 c-26 0 -35 -7 -48 -33 -11 -21
-13 -40 -8 -54 9 -25 1 -92 -12 -94 -5 -1 -14 -2 -19 -3 -6 0 -16 -12 -23 -26
-9 -17 -19 -24 -33 -21 -10 3 -32 5 -49 5 -29 1 -30 -1 -33 -49 -2 -27 -7 -54
-13 -59 -5 -6 -9 -23 -9 -38 0 -24 -4 -28 -28 -28 -32 0 -72 -25 -72 -45 0 -8
8 -18 17 -24 10 -5 15 -13 11 -17 -4 -4 2 -20 14 -37 12 -17 17 -28 11 -24 -6
4 -13 2 -15 -4 -3 -8 -17 -7 -49 4 -79 27 -132 58 -184 108 l-50 48 -38 -35
c-43 -41 -48 -75 -14 -99 l22 -16 -28 -21 c-26 -19 -27 -21 -10 -35 10 -8 13
-12 6 -8 -7 3 -24 3 -38 -1 -21 -5 -24 -9 -13 -16 8 -6 -2 -7 -32 -3 -24 3
-52 12 -61 20 -21 20 -26 19 -68 -14 -55 -44 -188 -108 -271 -130 -25 -7 -65
-25 -90 -41 -62 -39 -117 -61 -170 -70 -25 -4 -74 -15 -110 -23 -36 -9 -112
-23 -170 -32 -58 -9 -154 -29 -215 -45 -60 -17 -137 -37 -170 -46 -33 -9 -78
-23 -100 -31 -22 -9 -64 -24 -94 -34 -69 -24 -219 -100 -278 -140 -25 -17 -73
-58 -106 -90 l-62 -58 1928 -1 1927 0 0 1415 0 1414 -42 11 c-24 6 -72 22
-108 36 -36 13 -86 24 -111 24 -37 0 -50 5 -74 30 -38 39 -49 38 -41 -4z
m-789 -1156 c-3 -5 -13 -10 -21 -10 -8 0 -14 5 -14 10 0 6 9 10 21 10 11 0 17
-4 14 -10z"/>
<path d="M2431 2875 c1 -19 18 -51 18 -35 0 8 -4 22 -9 30 -5 8 -9 11 -9 5z"/>
<path d="M3236 2871 c-4 -7 -5 -15 -2 -18 9 -9 19 4 14 18 -4 11 -6 11 -12 0z"/>
<path d="M3156 2815 c4 -8 12 -15 20 -15 8 0 11 6 8 15 -4 8 -12 15 -20 15 -8
0 -11 -6 -8 -15z"/>
<path d="M2451 2784 c0 -11 3 -14 6 -6 3 7 2 16 -1 19 -3 4 -6 -2 -5 -13z"/>
<path d="M2467 2763 c-2 -5 -1 -19 4 -33 7 -23 7 -23 8 8 1 31 -3 40 -12 25z"/>
<path d="M3171 2724 c0 -11 3 -14 6 -6 3 7 2 16 -1 19 -3 4 -6 -2 -5 -13z"/>
<path d="M6317 2733 c-4 -3 -7 -15 -7 -25 0 -26 24 -17 28 10 3 21 -8 29 -21
15z"/>
<path d="M3128 2708 c-2 -13 -2 -33 2 -43 6 -17 8 -16 14 8 3 15 3 35 -2 44
-8 13 -10 11 -14 -9z"/>
<path d="M2920 2575 c0 -5 5 -17 10 -25 5 -8 10 -10 10 -5 0 6 -5 17 -10 25
-5 8 -10 11 -10 5z"/>
<path d="M2543 2455 c0 -22 2 -30 4 -17 2 12 2 30 0 40 -3 9 -5 -1 -4 -23z"/>
<path d="M6921 2456 c-15 -18 -11 -48 6 -53 7 -3 15 7 19 22 8 33 -8 52 -25
31z"/>
<path d="M2426 2432 c-5 -8 -4 -18 2 -24 11 -11 0 -60 -19 -86 -7 -10 0 -5 16
10 26 25 27 30 19 70 -6 29 -12 39 -18 30z"/>
<path d="M2410 2264 c0 -8 5 -12 10 -9 6 3 10 10 10 16 0 5 -4 9 -10 9 -5 0
-10 -7 -10 -16z"/>
<path d="M1847 2201 c-23 -15 -25 -20 -12 -25 42 -16 71 -2 59 28 -8 20 -12
19 -47 -3z"/>
<path d="M6307 2214 c-8 -8 3 -34 14 -34 5 0 9 9 9 20 0 19 -11 26 -23 14z"/>
<path d="M1584 2186 c-3 -8 -16 -17 -28 -20 -13 -3 -32 -18 -42 -33 -9 -15
-28 -39 -41 -53 -13 -14 -23 -32 -23 -41 0 -15 -15 -50 -52 -122 -5 -11 -7
-21 -5 -23 5 -5 87 78 130 131 20 24 27 27 39 17 33 -26 83 70 68 128 -6 21
-8 23 -15 8 -10 -25 -28 -23 -20 2 7 23 -3 28 -11 6z"/>
<path d="M1413 2148 c-11 -13 -24 -34 -28 -47 -5 -16 -10 -20 -15 -11 -5 8
-15 -3 -29 -32 -11 -24 -21 -49 -21 -54 0 -6 -9 -29 -21 -53 -35 -73 -15 -68
37 10 82 121 135 250 77 187z"/>
<path d="M1890 2020 c-6 -12 -9 -24 -7 -27 3 -2 11 5 17 17 6 12 9 24 7 27 -3
2 -11 -5 -17 -17z"/>
<path d="M727 2010 c-3 -11 -1 -20 4 -20 5 0 9 2 9 4 0 2 3 11 6 20 3 9 2 16
-4 16 -5 0 -12 -9 -15 -20z"/>
<path d="M1933 1968 c-14 -20 -46 -118 -40 -124 3 -3 8 4 12 15 3 12 10 21 15
21 8 0 17 26 26 73 6 29 2 34 -13 15z"/>
<path d="M1846 1875 c-9 -13 -16 -29 -16 -35 0 -5 -14 -37 -32 -70 -17 -33
-29 -62 -26 -65 7 -8 68 112 68 135 0 11 4 20 9 20 5 0 11 9 14 20 7 26 3 25
-17 -5z"/>
<path d="M80 1815 c0 -8 5 -15 10 -15 6 0 10 7 10 15 0 8 -4 15 -10 15 -5 0
-10 -7 -10 -15z"/>
<path d="M2520 1810 c0 -5 5 -10 10 -10 6 0 10 5 10 10 0 6 -4 10 -10 10 -5 0
-10 -4 -10 -10z"/>
<path d="M2561 1784 c0 -11 3 -14 6 -6 3 7 2 16 -1 19 -3 4 -6 -2 -5 -13z"/>
<path d="M2658 1686 c-19 -38 -16 -41 44 -79 37 -23 38 -22 37 16 -2 55 -14
82 -35 80 -10 -1 -21 3 -24 8 -4 5 -14 -6 -22 -25z"/>
<path d="M2824 1640 c3 -14 14 -56 25 -94 14 -55 19 -64 24 -45 15 57 -2 146
-27 140 -5 -2 -13 3 -18 11 -7 9 -8 5 -4 -12z"/>
<path d="M2792 1560 c0 -14 2 -19 5 -12 2 6 2 18 0 25 -3 6 -5 1 -5 -13z"/>
<path d="M1999 1450 c-2 -18 -5 -33 -9 -40 -1 -3 -3 -20 -5 -39 -2 -27 -1 -31
7 -17 19 34 28 79 18 95 -8 14 -10 14 -11 1z"/>
<path d="M2586 1426 c-4 -21 -5 -40 -2 -43 7 -8 18 42 14 64 -3 11 -7 3 -12
-21z"/>
<path d="M5139 1413 c16 -30 40 -48 51 -37 13 13 -8 40 -38 49 -21 6 -23 5
-13 -12z"/>
<path d="M731 1386 c-14 -14 -30 -26 -38 -26 -7 0 -22 -9 -33 -20 -11 -11 -29
-20 -41 -20 -31 0 -59 -19 -59 -40 0 -10 -5 -22 -10 -25 -6 -4 -8 -10 -5 -15
3 -5 -6 -12 -20 -16 -14 -3 -25 -10 -25 -14 0 -5 -20 -16 -45 -26 -45 -17 -66
-48 -50 -74 16 -27 227 27 247 63 6 11 22 32 35 46 14 14 35 49 48 76 14 28
32 60 41 73 14 19 15 22 1 22 -8 0 -17 5 -19 11 -2 5 -14 -1 -27 -15z"/>
<path d="M2021 1372 c-13 -25 -14 -42 -2 -42 10 0 25 50 17 57 -2 3 -9 -4 -15
-15z"/>
<path d="M4950 1256 c0 -22 29 -41 42 -28 8 8 8 15 -2 27 -16 19 -40 20 -40 1z"/>
<path d="M5072 1188 c-17 -17 -15 -42 7 -69 l19 -24 17 37 c10 20 15 43 12 52
-7 19 -38 21 -55 4z"/>
<path d="M6410 1063 c0 -8 51 -83 57 -83 8 0 -11 56 -25 73 -15 17 -32 23 -32
10z"/>
<path d="M4696 764 c-10 -26 -7 -102 5 -110 6 -3 18 -19 28 -34 21 -35 32 -29
55 33 15 39 16 53 6 76 -18 43 -82 67 -94 35z"/>
</g>
</svg>
